# ProBuilder 5.0.3
# https://unity3d.com/unity/features/worldbuilding/probuilder
# 13/08/2022 15:52:07

mtllib ./Cylinder.mtl
o Cylinder

g Cylinder
v -1 -1.348655 7.741689E-18
v -0.4809103 0.6513453 0.002365112
v -0.809017 -1.348655 0.5877852
v -0.3912115 0.6513453 0.27843
v -0.309017 -1.348655 0.9510565
v -0.1563766 0.6513453 0.4490476
v 0.3090169 -1.348655 0.9510565
v 0.1338952 0.6513453 0.4490476
v 0.8090171 -1.348655 0.5877852
v 0.3687301 0.6513453 0.27843
v 1 -1.348655 -8.742278E-08
v 0.4584291 0.6513453 0.002365112
v 0.8090171 -1.348655 -0.5877851
v 0.3687301 0.6513453 -0.2736998
v 0.3090171 -1.348655 -0.9510565
v 0.1338954 0.6513453 -0.4443173
v -0.3090171 -1.348655 -0.9510565
v -0.1563768 0.6513453 -0.4443173
v -0.8090169 -1.348655 -0.5877853
v -0.3912115 0.6513453 -0.2736998
v 0 -1.348655 7.741689E-18
v -1 1.348655 7.741689E-18
v 0 1.348655 7.741689E-18
v -0.8090169 1.348655 0.5877852
v -0.3090169 1.348655 0.9510565
v 0.3090169 1.348655 0.9510565
v 0.8090172 1.348655 0.5877852
v 1 1.348655 7.741689E-18
v 0.8090172 1.348655 -0.5877852
v 0.3090172 1.348655 -0.9510565
v -0.3090172 1.348655 -0.9510565
v -0.8090169 1.348655 -0.5877852

vt -0.309017 -1.537067
vt -0.1463601 0.5227877
vt 0.309017 -1.537067
vt 0.1439117 0.5227877
vt -0.3090169 -1.537887
vt -0.1528397 0.5226643
vt 0.3090171 -1.537887
vt 0.1374322 0.5226643
vt -0.309017 -1.539615
vt -0.1563766 0.5224264
vt 0.3090169 -1.539615
vt 0.1338952 0.5224264
vt -0.309017 -1.541577
vt -0.1556201 0.5221938
vt 0.3090171 -1.541577
vt 0.1346519 0.5221938
vt -0.309017 -1.543028
vt -0.1508588 0.5220482
vt 0.309017 -1.543028
vt 0.139413 0.5220481
vt -0.1439117 0.522012
vt 0.1463601 0.5220121
vt -0.309017 -1.542632
vt -0.1374321 0.5220856
vt 0.309017 -1.542632
vt 0.1528396 0.5220856
vt -0.3090171 -1.540932
vt -0.1338954 0.5222658
vt 0.3090171 -1.540932
vt 0.1563768 0.5222658
vt -0.3090169 -1.538963
vt -0.1346517 0.5225126
vt 0.3090169 -1.538963
vt 0.1556201 0.5225126
vt -0.1394129 0.5227247
vt 0.1508588 0.5227247
vt -1 7.741689E-18
vt 0 7.741689E-18
vt -0.809017 0.5877852
vt 1 7.741689E-18
vt 0.8090169 0.5877852
vt -0.309017 0.9510565
vt 0.3090169 0.9510565
vt 0.8090171 -0.5877851
vt -0.8090172 -0.5877852
vt 0.3090171 -0.9510565
vt -0.3090172 -0.9510565
vt 0.1528398 0.7843148
vt -0.137432 0.7843148
vt 0.3090173 1.649937
vt -0.3090166 1.649937
vt 0.1563768 0.78811
vt -0.1338954 0.78811
vt 0.3090172 1.650099
vt -0.3090172 1.650099
vt 0.1463599 0.782498
vt -0.1439119 0.782498
vt 0.1394132 0.7834157
vt -0.1508586 0.7834157
vt 0.1346518 0.7866839
vt -0.1556201 0.7866839
vt 0.1338952 0.7909704
vt -0.1563766 0.7909704
vt 0.1374322 0.7946182
vt -0.1528397 0.7946182
vt 0.1439118 0.7963077
vt -0.1463599 0.7963077
vt 0.1508586 0.7954588
vt -0.1394131 0.7954588
vt 0.1556198 0.7923605
vt -0.1346519 0.7923605

vn -0.9679297 0.2512211 2.682078E-05
vn -0.7830309 0.2515641 0.5688394
vn -0.2990133 0.25372 0.9199007
vn 0.2985239 0.2568594 0.9191881
vn 0.7811832 0.2597806 0.5676854
vn 0.965238 0.2613724 2.773547E-05
vn 0.7809362 0.2610321 -0.5674512
vn 0.298372 0.2588882 -0.9186681
vn -0.2988645 0.2557537 -0.9193857
vn -0.782791 0.2528234 -0.5686111
vn 0 -1 0
vn 0 1 0
vn 0.473496 -0.5925156 -0.6517107
vn 0 -0.5878719 -0.808954
vn 0.7646108 -0.5946841 -0.2484374
vn 0.7653774 -0.5935929 0.2486865
vn 0.4747362 -0.5896357 0.6534182
vn 0 -0.5842634 0.8115641
vn -0.4790224 -0.5795152 0.6593176
vn -0.7765974 -0.5772568 0.2523314
vn -0.7758299 -0.5783966 -0.252082
vn -0.4777811 -0.5824742 -0.6576085

usemtl Lit
f 1/37/11 21/38/11 3/39/11
f 3/39/11 21/38/11 5/42/11
f 5/42/11 21/38/11 7/43/11
f 7/43/11 21/38/11 9/41/11
f 9/41/11 21/38/11 11/40/11
f 11/40/11 21/38/11 13/44/11
f 13/44/11 21/38/11 15/46/11
f 15/46/11 21/38/11 17/47/11
f 17/47/11 21/38/11 19/45/11
f 19/45/11 21/38/11 1/37/11
f 24/41/12 23/38/12 22/40/12
f 25/43/12 23/38/12 24/41/12
f 26/42/12 23/38/12 25/43/12
f 27/39/12 23/38/12 26/42/12
f 28/37/12 23/38/12 27/39/12
f 29/45/12 23/38/12 28/37/12
f 30/47/12 23/38/12 29/45/12
f 31/46/12 23/38/12 30/47/12
f 32/44/12 23/38/12 31/46/12
f 22/40/12 23/38/12 32/44/12
f 4/4/2 2/2/1 1/1/1
f 1/1/1 3/3/2 4/4/2
f 6/8/3 4/6/2 3/5/2
f 3/5/2 5/7/3 6/8/3
f 8/12/4 6/10/3 5/9/3
f 5/9/3 7/11/4 8/12/4
f 10/16/5 8/14/4 7/13/4
f 7/13/4 9/15/5 10/16/5
f 12/20/6 10/18/5 9/17/5
f 9/17/5 11/19/6 12/20/6
f 14/22/7 12/21/6 11/17/6
f 11/17/6 13/19/7 14/22/7
f 16/26/8 14/24/7 13/23/7
f 13/23/7 15/25/8 16/26/8
f 18/30/9 16/28/8 15/27/8
f 15/27/8 17/29/9 18/30/9
f 20/34/10 18/32/9 17/31/9
f 17/31/9 19/33/10 20/34/10
f 2/36/1 20/35/10 19/1/10
f 19/1/10 1/3/1 2/36/1
f 29/51/13 14/49/13 16/48/13
f 16/48/13 30/50/13 29/51/13
f 30/55/14 16/53/14 18/52/14
f 18/52/14 31/54/14 30/55/14
f 28/51/15 12/57/15 14/56/15
f 14/56/15 29/50/15 28/51/15
f 27/51/16 10/59/16 12/58/16
f 12/58/16 28/50/16 27/51/16
f 26/55/17 8/61/17 10/60/17
f 10/60/17 27/54/17 26/55/17
f 25/55/18 6/63/18 8/62/18
f 8/62/18 26/54/18 25/55/18
f 24/55/19 4/65/19 6/64/19
f 6/64/19 25/54/19 24/55/19
f 22/55/20 2/67/20 4/66/20
f 4/66/20 24/54/20 22/55/20
f 32/55/21 20/69/21 2/68/21
f 2/68/21 22/54/21 32/55/21
f 31/55/22 18/71/22 20/70/22
f 20/70/22 32/54/22 31/55/22

