# ProBuilder 5.0.3
# https://unity3d.com/unity/features/worldbuilding/probuilder
# 29/08/2022 21:37:44

mtllib ./Cone.mtl
o Cone

g Cone
v -0.1 -0.5 0
v -0.05 -0.5 0.08660255
v 0 0.5 0
v 0 -0.5 0
v 0.05000001 -0.5 0.08660254
v 0.1 -0.5 -8.742278E-09
v 0.04999999 -0.5 -0.08660255
v -0.04999999 -0.5 -0.08660255

vt 0 0
vt 0.2 5.960464E-08
vt 0.1 1.014889
vt -0.1 0
vt -0.05 0.08660255
vt 0.05000001 0.08660254
vt 0.1 -8.742278E-09
vt 0.04999999 -0.08660255
vt -0.04999999 -0.08660255

vn -0.9950371 0.09950373 0
vn -0.4975186 0.09950373 0.8617275
vn 1.151385E-07 1 -4.605542E-07
vn 0 -1 0
vn 0.4975187 0.09950372 0.8617275
vn 0.9950371 0.09950373 -1.031104E-07
vn 0.4975186 0.09950373 -0.8617275
vn -0.4975186 0.09950371 -0.8617275

usemtl Lit
f 1/1/1 2/2/2 3/3/3
f 4/1/4 2/5/4 1/4/4
f 2/1/2 5/2/5 3/3/3
f 4/1/4 5/6/4 2/5/4
f 5/1/5 6/2/6 3/3/3
f 4/1/4 6/7/4 5/6/4
f 6/1/6 7/2/7 3/3/3
f 4/1/4 7/8/4 6/7/4
f 7/1/7 8/2/8 3/3/3
f 4/1/4 8/9/4 7/8/4
f 8/1/8 1/2/1 3/3/3
f 4/1/4 1/4/4 8/9/4

